<svg xmlns="http://www.w3.org/2000/svg" viewBox="0 0 100 100" fill="none">
  <!-- Lambang Resmi Institut Cokroaminoto Pinrang (ICP) - Rasio 1:1 murni -->
  <g transform="translate(10, 10)">
    <!-- Lingkaran Luar Hijau Tua & List Emas -->
    <circle cx="40" cy="40" r="36" fill="#14532d" stroke="#f59e0b" stroke-width="2.5"/>
    <circle cx="40" cy="40" r="28" fill="#166534" stroke="#ffffff" stroke-width="1.2"/>
    <!-- Bulan Sabit Emas -->
    <path d="M40 22 C48 22 54 28 54 36 C54 44 48 50 40 50 C44 46 46 41 46 36 C46 31 44 26 40 22 Z" fill="#fbbf24"/>
    <!-- Bintang Emas Lima Sudut -->
    <polygon points="46,28 48,32 52,32 49,35 50,39 46,37 42,39 43,35 40,32 44,32" fill="#fbbf24"/>
    <!-- Pena dan Buku Terbuka Putih -->
    <path d="M26 48 C34 46 38 51 40 52 C42 51 46 46 54 48 L54 59 C46 57 42 61 40 62 C38 61 34 57 26 59 Z" fill="#ffffff" stroke="#f59e0b" stroke-width="1.2"/>
  </g>
</svg>